# xmcd
#
# Track frame offsets:
#	150
#	17121
#	33715
#	47237
#	64158
#	82379
#	98438
#	114889
#	130857
#	147939
#	160897
#	175079
#	192850
#	206017
#	227634
#	242096
#	258501
#	276496
#
# Disc length: 3915
#
# Revision: 4
# Processed by: cddbd v1.5.1PL0 Copyright (c) Steve Scherf et al.
# Submitted via: FreeRIP 2.60 
# Normalized: r3:DSETVAR1,TDELIM( - )
#
DISCID=040f4912
DTITLE=Various Artist - Promo Only Country Radio October 2002
DYEAR=2002
DGENRE=Country
TTITLE0=Faith Hill - Cry
TTITLE1=Gary Allan - Man To Man
TTITLE2=Aaron Tippin - If Her Lovin Dont Kill Me
TTITLE3=Dixie Chicks - Landslide
TTITLE4=Andy Griggs - Practice Life
TTITLE5=LeAnn Rimes - Life Goes On (Radio Remix)
TTITLE6=Mark Chesnutt - I Want My Baby Back
TTITLE7=Aaron Lines - You Can't Hide Beautiful
TTITLE8=Neal Mccoy - The Luckiest Man in the World (Album Version)
TTITLE9=Brad Martin - Rub Me The Right Way (Radio Remix)
TTITLE10=Daryle Singletary - I'd Love To Lay You Down
TTITLE11=Rodney Atkins - My Old Man
TTITLE12=Confederate Railroad - White Trash With Money
TTITLE13=Craig Morgan - Almost Home
TTITLE14=Jenai - South Side Stomp
TTITLE15=Ty Herndon - America is Strong
TTITLE16=Rodney Redmond - These Days
TTITLE17=Joe Nichols - The Impossible (Acoustic Version)
EXTD=
EXTT0=
EXTT1=
EXTT2=
EXTT3=
EXTT4=
EXTT5=
EXTT6=
EXTT7=
EXTT8=
EXTT9=
EXTT10=
EXTT11=
EXTT12=
EXTT13=
EXTT14=
EXTT15=
EXTT16=
EXTT17=
PLAYORDER=
